# xmcd
#
# Track frame offsets: 
#        150
#        17192
#        34442
#        51900
#        71907
#        92007
#        107642
#        122447
#        134380
#        151485
#
# Disc length: 2267 seconds
#
# Revision: 1
# Processed by: cddbd v1.5.2PL0 Copyright (c) Steve Scherf et al.
# Submitted via: ExactAudioCopy v1.3
#
DISCID=8a08d90a
DTITLE=羅時豐 - 豐動天下-2
DYEAR=1900
DGENRE=A Cappella
TTITLE0=無言的結局
TTITLE1=感情到最後
TTITLE2=圓仔花與少年家
TTITLE3=愛情這呢苦
TTITLE4=不願放開你的手
TTITLE5=小姐咱是尚速配
TTITLE6=買醉
TTITLE7=一見鍾情
TTITLE8=港邊甘是男性傷心的所在
TTITLE9=泡茶
EXTD=
EXTT0=
EXTT1=
EXTT2=
EXTT3=
EXTT4=
EXTT5=
EXTT6=
EXTT7=
EXTT8=
EXTT9=
PLAYORDER=
